<svg width="39" height="39" fill="none" xmlns="http://www.w3.org/2000/svg"><path d="M29.25 17.063V9.75C29.25 4.375 24.878 0 19.5 0c-5.376 0-9.75 4.375-9.75 9.75v7.313a4.875 4.875 0 00-4.875 4.874v12.188A4.875 4.875 0 009.75 39h19.5a4.875 4.875 0 004.875-4.875V21.937a4.875 4.875 0 00-4.875-4.874zm-8.531 11.813v4.03a1.218 1.218 0 11-2.438 0v-4.03c-.715-.423-1.218-1.171-1.218-2.063a2.437 2.437 0 114.875 0c0 .892-.504 1.64-1.22 2.063zm3.656-11.813h-9.75V9.75A4.879 4.879 0 0119.5 4.875a4.88 4.88 0 014.875 4.875v7.313z" fill="#fff"/></svg>