<svg width="73" height="44" fill="none" xmlns="http://www.w3.org/2000/svg"><path d="M29.783 14.58c-1.557 2.839-2.593 5.893-3.215 9.058-2.432-4.574-6.186-8.95-9.768-10.787 2.65 5.066 6.31 10.895 9.18 14.793a46.585 46.585 0 00-.139 1.83l-.003.02-.004.074-.003.027v.016l-.003.108v.02l-.007.084-.007.098-.006.155c-.007.174-.02.34-.024.497l-.007.246v.007l-.01.235v.097l-.003.034-.003.067v.089l-.004.077v.433l-.007.08v.17l-.003.08v.589l.003.034c.007 1.473.081 2.963.195 4.423-4.473-4.372-12.559-8.133-18.04-7.9 5.976 3.88 13.92 8.014 18.195 9.599.104 1.086.239 2.169.394 3.238C9.885 48.959 7.884 35.386 0 25.552c5.19-1.874 9.572-2.677 13.255-2.583-1.15-4.985-.474-11.194-1.476-17.292 9.283 1.55 14.984 4.686 18.004 8.903zM72.196.01c-7.954 22.252-2.3 47.727-41.407 41.962C27.176 17.167 36.17-.478 72.196.01zM61.268 10.803c-10.763 3.24-24.337 17.534-27.264 28.27 5.156-3.222 18.32-16.79 27.264-28.27z" fill="#fff"/></svg>