<svg width="45" height="45" fill="none" xmlns="http://www.w3.org/2000/svg"><path d="M17.477 45C7.84 45 0 37.16 0 27.523c0-9.636 7.84-17.476 17.477-17.476 9.636 0 17.476 7.84 17.476 17.476C34.953 37.16 27.113 45 17.477 45zm0-28.417c-6.033 0-10.941 4.908-10.941 10.94 0 6.034 4.908 10.942 10.94 10.942 6.033 0 10.942-4.908 10.942-10.941s-4.91-10.94-10.941-10.94zM45 17.477h-6.536V6.536h-10.94V0H45v17.477z" fill="#fff"/><path d="M25.212 15.167l4.621 4.621L44.041 5.58 39.42.959 25.212 15.167z" fill="#fff"/></svg>