<svg width="49" height="49" fill="none" xmlns="http://www.w3.org/2000/svg"><circle cx="24.058" cy="24.058" r="23.558" stroke="#FFB905"/><path d="M29.132 16.393c-4.53 4.197-8.75 10.842-9.78 13.115-2.058-2.098-2.438-2.706-4.631-4.197C11.632 23.213 8.716 22.863 7 22.69c.858 1.049 4.118 3.672 7.72 8.393 3.576 4.685 4.633 7.344 5.148 8.918.343-1.399 2.214-6.385 3.088-7.869 1.544-2.623 3.28-7.119 6.176-10.492C32.735 17.443 38.225 11.148 42 8c-2.917 1.399-8.338 4.197-12.868 8.393z" fill="#FFB905"/></svg>